<svg width="17" height="17" viewBox="0 0 17 17" fill="none" xmlns="http://www.w3.org/2000/svg">
<path d="M11.2103 8.76325V11.5632C11.2103 13.8966 10.277 14.8299 7.94362 14.8299H5.14362C2.81029 14.8299 1.87695 13.8966 1.87695 11.5632V8.76325C1.87695 6.42992 2.81029 5.49658 5.14362 5.49658H7.94362C10.277 5.49658 11.2103 6.42992 11.2103 8.76325Z" stroke="#292D32" stroke-width="1.5" stroke-linecap="round" stroke-linejoin="round"/>
<path d="M15.2103 4.76325V7.56325C15.2103 9.89658 14.277 10.8299 11.9436 10.8299H11.2103V8.76325C11.2103 6.42992 10.277 5.49658 7.94362 5.49658H5.87695V4.76325C5.87695 2.42992 6.81029 1.49658 9.14362 1.49658H11.9436C14.277 1.49658 15.2103 2.42992 15.2103 4.76325Z" stroke="#292D32" stroke-width="1.5" stroke-linecap="round" stroke-linejoin="round"/>
</svg>
