<svg width="17" height="17" viewBox="0 0 17 17" fill="none" xmlns="http://www.w3.org/2000/svg">
<path d="M14.6338 4.14974C12.4138 3.92974 10.1805 3.81641 7.95379 3.81641C6.63379 3.81641 5.31379 3.88307 3.99379 4.01641L2.63379 4.14974" stroke="#292D32" stroke-width="1.5" stroke-linecap="round" stroke-linejoin="round"/>
<path d="M6.30078 3.47658L6.44745 2.60325C6.55411 1.96992 6.63411 1.49658 7.76078 1.49658H9.50745C10.6341 1.49658 10.7208 1.99658 10.8208 2.60992L10.9674 3.47658" stroke="#292D32" stroke-width="1.5" stroke-linecap="round" stroke-linejoin="round"/>
<path d="M13.2007 6.25635L12.7674 12.9697C12.6941 14.0163 12.6341 14.8297 10.774 14.8297H6.49405C4.63405 14.8297 4.57405 14.0163 4.50072 12.9697L4.06738 6.25635" stroke="#292D32" stroke-width="1.5" stroke-linecap="round" stroke-linejoin="round"/>
<path d="M7.52051 11.1631H9.74051" stroke="#292D32" stroke-width="1.5" stroke-linecap="round" stroke-linejoin="round"/>
<path d="M6.9668 8.49658H10.3001" stroke="#292D32" stroke-width="1.5" stroke-linecap="round" stroke-linejoin="round"/>
</svg>
