<svg width="73" height="96" viewBox="0 0 73 96" fill="none" xmlns="http://www.w3.org/2000/svg">
<rect x="22.5547" y="0.661133" width="27.9298" height="7.82034" rx="3.91017" fill="white" stroke="black" stroke-opacity="0.18" stroke-width="0.558595"/>
<rect x="0.210938" y="11.833" width="72.6174" height="72.6174" rx="36.3087" fill="white"/>
<rect x="0.490235" y="12.1123" width="72.0588" height="72.0588" rx="36.0294" stroke="black" stroke-opacity="0.18" stroke-width="0.558595"/>
<circle cx="36.5196" cy="48.1417" r="24.0196" fill="#F4DDDC"/>
<path d="M24.1172 45.2271V43.9647H29.8372V45.2271H27.7592V51.7627H26.1951V45.2271H24.1172ZM31.0007 48.4335V47.1152H35.7376V48.4335H31.0007Z" fill="#BB2E26"/>
<path d="M37.8909 47.5844C37.8909 45.2271 38.6059 43.462 40.9074 43.462C43.2088 43.462 43.9238 45.2271 43.9238 47.5844C43.9238 49.964 43.2088 51.7404 40.9074 51.7404C38.6059 51.7404 37.8909 49.964 37.8909 47.5844ZM42.382 47.5844C42.382 46.1879 42.2256 44.9143 40.9074 44.9143C39.5891 44.9143 39.4327 46.1879 39.4327 47.5844C39.4327 49.0367 39.5891 50.288 40.9074 50.288C42.2256 50.288 42.382 49.0367 42.382 47.5844ZM46.0072 51.7627V45.0596H44.9235V43.6184H47.6159V51.7627H46.0072Z" fill="#BB2E26"/>
<rect x="22.5547" y="87.8018" width="27.9298" height="7.82034" rx="3.91017" fill="white" stroke="black" stroke-opacity="0.18" stroke-width="0.558595"/>
</svg>
