<svg width="45" height="39" viewBox="0 0 45 39" fill="none" xmlns="http://www.w3.org/2000/svg">
<rect width="43.4046" height="37.9237" transform="translate(44.2461 38.125) rotate(-180)" fill="#F9F9F9"/>
<path d="M25.2103 19.7632V22.5632C25.2103 24.8966 24.277 25.8299 21.9436 25.8299H19.1436C16.8103 25.8299 15.877 24.8966 15.877 22.5632V19.7632C15.877 17.4299 16.8103 16.4966 19.1436 16.4966H21.9436C24.277 16.4966 25.2103 17.4299 25.2103 19.7632Z" stroke="#292D32" stroke-width="1.5" stroke-linecap="round" stroke-linejoin="round"/>
<path d="M29.2103 15.7632V18.5632C29.2103 20.8966 28.277 21.8299 25.9436 21.8299H25.2103V19.7632C25.2103 17.4299 24.277 16.4966 21.9436 16.4966H19.877V15.7632C19.877 13.4299 20.8103 12.4966 23.1436 12.4966H25.9436C28.277 12.4966 29.2103 13.4299 29.2103 15.7632Z" stroke="#292D32" stroke-width="1.5" stroke-linecap="round" stroke-linejoin="round"/>
</svg>
