<svg width="102" height="102" viewBox="0 0 102 102" fill="none" xmlns="http://www.w3.org/2000/svg">
<rect x="1" y="36.2939" width="8.23529" height="29.4118" rx="4.11765" fill="white" stroke="black" stroke-opacity="0.18" stroke-width="0.588235"/>
<rect x="36.2939" y="1" width="29.4118" height="8.23529" rx="4.11765" fill="white" stroke="black" stroke-opacity="0.18" stroke-width="0.588235"/>
<rect x="12.7646" y="12.7646" width="76.4706" height="76.4706" rx="9.41177" fill="white"/>
<rect x="13.0588" y="13.0588" width="75.8824" height="75.8824" rx="9.11765" stroke="black" stroke-opacity="0.18" stroke-width="0.588235"/>
<circle cx="51.0002" cy="51.0002" r="25.2941" fill="#F3DFDF"/>
<path d="M44.2816 46.9645V48.2939H42.0934V55.1763H40.4463V48.2939H38.2581V46.9645H44.2816ZM50.4951 50.2822V51.6704H45.5069V50.2822H50.4951Z" fill="url(#paint0_linear_33_3527)"/>
<path d="M52.9175 50.7763C52.9175 49.4194 53.1606 48.3567 53.6469 47.588C54.141 46.8194 54.9567 46.4351 56.0939 46.4351C57.2312 46.4351 58.043 46.8194 58.5292 47.588C59.0234 48.3567 59.2704 49.4194 59.2704 50.7763C59.2704 52.141 59.0234 53.2116 58.5292 53.988C58.043 54.7645 57.2312 55.1527 56.0939 55.1527C54.9567 55.1527 54.141 54.7645 53.6469 53.988C53.1606 53.2116 52.9175 52.141 52.9175 50.7763ZM57.6469 50.7763C57.6469 50.1959 57.6077 49.7096 57.5292 49.3174C57.4587 48.9174 57.3096 48.592 57.0822 48.341C56.8626 48.09 56.5332 47.9645 56.0939 47.9645C55.6547 47.9645 55.3214 48.09 55.0939 48.341C54.8743 48.592 54.7253 48.9174 54.6469 49.3174C54.5763 49.7096 54.541 50.1959 54.541 50.7763C54.541 51.3723 54.5763 51.8743 54.6469 52.2822C54.7175 52.6822 54.8665 53.0076 55.0939 53.2586C55.3214 53.5018 55.6547 53.6233 56.0939 53.6233C56.5332 53.6233 56.8665 53.5018 57.0939 53.2586C57.3214 53.0076 57.4704 52.6822 57.541 52.2822C57.6116 51.8743 57.6469 51.3723 57.6469 50.7763ZM60.3232 48.1174V46.5998H63.1585V55.1763H61.4644V48.1174H60.3232Z" fill="url(#paint1_linear_33_3527)"/>
<rect x="36.2939" y="92.7646" width="29.4118" height="8.23529" rx="4.11765" fill="white" stroke="black" stroke-opacity="0.18" stroke-width="0.588235"/>
<rect x="92.7646" y="36.2939" width="8.23529" height="29.4118" rx="4.11765" fill="white" stroke="black" stroke-opacity="0.18" stroke-width="0.588235"/>
<defs>
<linearGradient id="paint0_linear_33_3527" x1="37.7061" y1="60.1763" x2="52.8618" y2="50.448" gradientUnits="userSpaceOnUse">
<stop stop-color="#1B171C"/>
<stop offset="1" stop-color="#E83529"/>
</linearGradient>
<linearGradient id="paint1_linear_33_3527" x1="52.2939" y1="60.1763" x2="66.3746" y2="52.4293" gradientUnits="userSpaceOnUse">
<stop stop-color="#1B171C"/>
<stop offset="1" stop-color="#E83529"/>
</linearGradient>
</defs>
</svg>
