<svg width="18" height="18" viewBox="0 0 18 18" fill="none" xmlns="http://www.w3.org/2000/svg">
<path d="M6.2359 0.737316C6.1915 0.738279 6.14722 0.742467 6.10342 0.749849H0.750227C0.507119 0.749873 0.273976 0.846458 0.102073 1.01836C-0.0698305 1.19026 -0.166415 1.42341 -0.16644 1.66652V8.84588C-0.182801 8.94487 -0.182801 9.04588 -0.16644 9.14487V16.3332C-0.166415 16.5763 -0.0698305 16.8094 0.102073 16.9813C0.273976 17.1532 0.507119 17.2498 0.750227 17.2498H6.09626C6.19525 17.2662 6.29625 17.2662 6.39525 17.2498H11.5963C11.6952 17.2662 11.7963 17.2662 11.8952 17.2498H17.2502C17.4933 17.2498 17.7265 17.1532 17.8984 16.9813C18.0703 16.8094 18.1669 16.5763 18.1669 16.3332V9.15382C18.1833 9.05483 18.1833 8.95382 18.1669 8.85483V1.66652C18.1669 1.42341 18.0703 1.19026 17.8984 1.01836C17.7265 0.846458 17.4933 0.749873 17.2502 0.749849H11.8917C11.8402 0.741246 11.7881 0.737053 11.7359 0.737316C11.6915 0.738279 11.6472 0.742467 11.6034 0.749849H6.39167C6.3402 0.741246 6.28809 0.737053 6.2359 0.737316ZM1.66689 2.58318H5.33356V8.08318H1.66689V2.58318ZM7.16689 2.58318H10.8336V8.08318H7.16689V2.58318ZM12.6669 2.58318H16.3336V8.08318H12.6669V2.58318ZM1.66689 9.91651H5.33356V15.4165H1.66689V9.91651ZM7.16689 9.91651H10.8336V15.4165H7.16689V9.91651ZM12.6669 9.91651H16.3336V15.4165H12.6669V9.91651Z" fill="url(#paint0_linear_34_507)"/>
<defs>
<linearGradient id="paint0_linear_34_507" x1="-0.178711" y1="17.2621" x2="15.0674" y2="3.28408" gradientUnits="userSpaceOnUse">
<stop stop-color="#1B171C"/>
<stop offset="1" stop-color="#E83529"/>
</linearGradient>
</defs>
</svg>
